<svg width="1676" height="352" fill="none" xmlns="http://www.w3.org/2000/svg"><g clip-path="url(#a)" fill="#FF01D5"><path d="M920.7 53.05c-40.34-9.44-99.62 4.55-115.58 36.77-.22.44-.66.73-1.15.75-.53-.02-.96-.22-1.22-.64-16.62-26.58-42.93-41.15-74.2-41.15-.51 0-1.03 0-1.54.01-31.44.48-61.77 15.91-76.52 37.52l-.89-.04c2.81-13.03 4.69-28.28 5.21-35.64H547.64l-.38 293.29H648.4l.4-152.17c.27-27.76 17.78-43.27 34.13-43.77.26-.01.53-.01.79-.01 12.87 0 30.12 9.49 30.12 36.9v159.05h110.4V192.28c.27-27.76 17.87-43.27 34.3-43.78.26-.01.53-.01.8-.01 12.93 0 30.24 9.53 30.24 36.86v158.58h110.38V172.51c0-87.78-49.66-112.52-79.25-119.45l-.01-.01ZM228.37 50.6c0 40.27-15.84 119.28-54.25 168.02L109.01 48.37 0 62.94l107.99 280.98h109.88c34.65-39 64.33-86.68 83.71-133.83 0 0 35.44-73.88 35.44-159.46l-108.65-.02v-.01Zm121.34 147.96c0 87.03 51.19 145.35 135.06 145.35h49.85v-99.33l-38.06-.02c-28.91 0-44.41-23.52-44.41-57.01v-37.73h62.44c1.76-5.1 16.6-52.1 21.29-99.2l-87.92-.02c8.62-22.31 8.82-43.36 8.99-50.06H349.53l.19 198.01-.01.01Zm1078.76 133.15c-24.69-13.11-43.99-31.83-57.9-56.15-13.92-24.32-20.88-52.81-20.88-85.49 0-32.68 6.96-61.16 20.88-85.48 13.92-24.32 33.21-43.04 57.9-56.15 24.69-13.11 52.78-19.67 84.28-19.67s59.59 6.56 84.28 19.67c24.68 13.11 43.99 31.82 57.91 56.15 13.92 24.32 20.88 52.81 20.88 85.48s-6.96 61.17-20.88 85.49c-13.92 24.31-33.22 43.04-57.91 56.15-24.69 13.11-52.78 19.66-84.28 19.66s-59.59-6.55-84.28-19.66Zm34.18-80.22c12.01 14.43 28.71 21.65 50.1 21.65s38.09-7.21 50.11-21.65c12.01-14.43 18.02-34.9 18.02-61.42 0-26.52-6.01-46.99-18.02-61.42-12.02-14.43-28.72-21.65-50.11-21.65s-38.09 7.21-50.1 21.65c-12.02 14.43-18.02 34.9-18.02 61.42 0 26.52 6 47 18.02 61.42ZM1203.6 180.4c-2.13 21.18-6.6 43.34-14.01 65.05h43.88c-2.71 5.94-6.47 11.34-11.57 16.04-8.43 7.77-21.13 11.65-38.13 11.65-12.12 0-22.63-2.28-31.65-6.67-1.91-1.01-3.84-1.98-5.61-3.2-10.41-7.18-18.21-17.07-23.4-29.67-5.2-12.59-7.8-27.1-7.8-43.51 0-26.07 5.9-46.44 17.69-61.09 11.79-14.65 28.75-21.98 50.87-21.98 16.99 0 29.7 3.88 38.13 11.65 8.42 7.77 13.59 17.21 15.49 28.35h91.85c-1.17-22.85-7.77-43.21-19.78-61.09-12.02-17.87-28.76-31.86-50.21-41.97-21.46-10.11-46.62-15.17-75.48-15.17-32.67 0-61.35 6.59-86.04 19.78-24.69 13.19-43.77 31.94-57.25 56.26-13.48 24.32-20.21 52.74-20.21 85.26s6.7 61.64 20.11 86.04c13.41 24.39 31.72 43.04 54.94 55.93 23.22 12.88 49.19 19.33 77.9 19.33 19.34 0 36.26-3.62 50.76-10.88 14.5-7.25 26.15-17.54 34.94-30.88 1.65-2.43 4.09-7.01 7.03-12.92v47.2h66.36v-163.5h-128.83l.02-.01Z"/></g><defs><clipPath id="a"><path fill="#fff" transform="translate(0 .55)" d="M0 0h1675.81v350.82H0z"/></clipPath></defs></svg>